<svg width="22" height="24" viewBox="0 0 22 24" fill="none" xmlns="http://www.w3.org/2000/svg">
<path d="M20.952 18.5L11.238 24V19.714L17.286 16.38L20.952 18.5ZM21.618 17.905V6.385L18.07 8.456V15.837L21.618 17.885V17.905ZM0.666 18.5L10.38 24V19.714L4.332 16.38L0.666 18.5ZM0 17.905V6.385L3.548 8.456V15.837L0 17.905ZM0.405 5.643L10.381 0V4.143L3.952 7.691L0.405 5.643ZM21.214 5.643L11.238 0V4.143L17.666 7.691L21.214 5.643ZM10.381 18.738L4.409 15.451V8.927L10.385 12.379L10.381 18.738ZM11.238 18.738L17.214 15.452V8.928L11.238 12.38V18.738ZM4.809 8.19L10.809 4.88L16.809 8.19L10.809 11.643L4.809 8.19Z" fill="black"/>
</svg>
